<svg xmlns="http://www.w3.org/2000/svg" viewBox="0 0 106 106"><defs><style>.cls-1{fill:#485761;}.cls-2{fill:#43d490;}.cls-3{opacity:0.1;}.cls-4{opacity:0.25;}.cls-5{fill:#171c1f;}</style></defs><title>gear</title><g id="Gear"><g id="Fill"><path class="cls-1" d="M101,71.56,91.8,61.15l-.63-.72.16-.94a38.83,38.83,0,0,0,0-13l-.16-.94.63-.72,8-9L101,34.42,93,20.57l-13.6,2.79-.94.19-.74-.61a38.71,38.71,0,0,0-11.22-6.5l-.89-.33-.3-.91L61.57,3.8,61,2H45L45,2.2l-4.32,13-.3.91-.89.33a38.71,38.71,0,0,0-11.22,6.5l-.74.61-.94-.19L14.74,20.94,13,20.58,5,34.43H5l9.2,10.41.63.72-.16.94a38.83,38.83,0,0,0,0,13l.16.94-.63.72-8,9L5,71.58l8,13.85,13.6-2.79.94-.19.74.61a38.71,38.71,0,0,0,11.22,6.5l.89.33.3.91,3.79,11.4L45,104H61l.07-.2,4.32-13,.3-.91.89-.33a38.71,38.71,0,0,0,11.22-6.5l.74-.61.94.19,11.81,2.42,1.79.36,8-13.85ZM53,74A21,21,0,1,1,74,53,21,21,0,0,1,53,74Z"/></g><g id="Green"><path class="cls-2" d="M12.53,72.9a4,4,0,0,0-5.46-1.46l-1.73,1,7,12.12,1.73-1a4,4,0,0,0,1.46-5.46ZM93.47,33.1a4,4,0,0,0,5.46,1.46l1.73-1-7-12.12-1.73,1a4,4,0,0,0-1.46,5.46Zm0,39.8-3,5.2a4,4,0,0,0,1.46,5.46l1.73,1,7-12.12-1.73-1A4,4,0,0,0,93.47,72.9ZM14.06,22.44l-1.73-1-7,12.12,1.73,1a4,4,0,0,0,5.46-1.46l3-5.2A4,4,0,0,0,14.06,22.44ZM56,98H50a4,4,0,0,0-4,4v2H60v-2A4,4,0,0,0,56,98ZM46,4a4,4,0,0,0,4,4h6a4,4,0,0,0,4-4V2H46Z"/></g><g id="Shadows" class="cls-3"><path d="M89.36,59.16A37.52,37.52,0,0,0,89.88,53c0-.33,0-.67,0-1a37.68,37.68,0,0,1-.48,5.16L89,59l.28.32Zm.95-15.64,6.87-7.77,1.39-1.58L97.87,33l-.69.78-6.87,7.77L89,43l.28,1.68ZM53,77A22,22,0,0,0,75,55c0-.34,0-.67-.05-1a22,22,0,0,1-43.9,0c0,.33-.05.66-.05,1A22,22,0,0,0,53,77ZM16.15,52c0,.33,0,.67,0,1a37.52,37.52,0,0,0,.52,6.16l0,.2.28-.32-.32-1.89A37.67,37.67,0,0,1,16.15,52Zm-7-15.89,6.55,7.41,1,1.11L16.94,43l-1.26-1.43L9.13,34.11h0L8.12,33l-.7,1.21,1.71,1.93ZM92,81.18l-2-.4L79.84,78.68,78,78.29,76.5,79.52a36.73,36.73,0,0,1-10.64,6.17l-1.79.67-.6,1.82-3.12,9.4h0L59.52,100H46.46l-.68-2-3.25-9.79-.6-1.82-1.79-.67a36.73,36.73,0,0,1-10.64-6.17L28,78.29l-1.87.38-9.71,2h0L14,81.17,8.12,71l-.7.79L14,83.17l2.48-.51h0l9.71-2L28,80.29l1.47,1.22a36.73,36.73,0,0,0,10.64,6.17l1.79.67.6,1.82L45.78,100l.68,2H59.52l.81-2.43h0l3.12-9.4.6-1.82,1.79-.67A36.73,36.73,0,0,0,76.5,81.52L78,80.29l1.87.38L90,82.77l2,.4,6.53-11.35-.7-.79Z"/></g><g id="Inner_Lines_1" data-name="Inner Lines 1" class="cls-4"><path class="cls-5" d="M53,27A26,26,0,1,0,79,53,26,26,0,0,0,53,27Zm0,47A21,21,0,1,1,74,53,21,21,0,0,1,53,74Z"/></g><g id="Inner_Lines_2" data-name="Inner Lines 2"><path class="cls-5" d="M14.26,71.9a6,6,0,0,0-8.2-2.2l-1.73,1,1,1.73,1.73-1a4,4,0,0,1,5.46,1.46l3,5.2a4,4,0,0,1-1.46,5.46l-1.73,1,1,1.73,1.73-1a6,6,0,0,0,2.2-8.2Zm.8-51.2-1.73-1-1,1.73,1.73,1a4,4,0,0,1,1.46,5.46l-3,5.2a4,4,0,0,1-5.46,1.46l-1.73-1-1,1.73,1.73,1a6,6,0,0,0,8.2-2.2l3-5.2A6,6,0,0,0,15.06,20.71ZM91.74,34.1a6,6,0,0,0,8.2,2.2l1.73-1-1-1.73-1.73,1a4,4,0,0,1-5.46-1.46l-3-5.2a4,4,0,0,1,1.46-5.46l1.73-1-1-1.73-1.73,1a6,6,0,0,0-2.2,8.2Zm0,37.8-3,5.2a6,6,0,0,0,2.2,8.2l1.73,1,1-1.73-1.73-1a4,4,0,0,1-1.46-5.46l3-5.2a4,4,0,0,1,5.46-1.46l1.73,1,1-1.73-1.73-1A6,6,0,0,0,91.74,71.9ZM60,4a4,4,0,0,1-4,4H50a4,4,0,0,1-4-4V2H44V4a6,6,0,0,0,6,6h6a6,6,0,0,0,6-6V2H60ZM56,96H50a6,6,0,0,0-6,6v2h2v-2a4,4,0,0,1,4-4h6a4,4,0,0,1,4,4v2h2v-2A6,6,0,0,0,56,96Z"/></g><g id="Outline"><path class="cls-5" d="M102.5,70.24,93.29,59.82a40.83,40.83,0,0,0,0-13.65l9.21-10.42h0a2,2,0,0,0,.24-2.32l-8-13.86a2,2,0,0,0-1.72-1,2,2,0,0,0-.4,0h0L79,21.4a40.8,40.8,0,0,0-11.79-6.84L62.86,1.37h0A2,2,0,0,0,61,0H45a2,2,0,0,0-1.88,1.37h0l-4.39,13.2A40.8,40.8,0,0,0,26.95,21.4l-13.6-2.79h0a2,2,0,0,0-.4,0,2,2,0,0,0-1.72,1l-8,13.86a2,2,0,0,0,.24,2.32h0L12.7,46.18a40.83,40.83,0,0,0,0,13.65L3.49,70.24h0a2,2,0,0,0-.24,2.32l8,13.86a2,2,0,0,0,1.72,1,2,2,0,0,0,.4,0h0l13.6-2.79a40.8,40.8,0,0,0,11.79,6.84l4.39,13.2h0A2,2,0,0,0,45,106H61a2,2,0,0,0,1.88-1.37h0l4.39-13.2A40.8,40.8,0,0,0,79,84.6l13.6,2.79h0a2,2,0,0,0,.4,0,2,2,0,0,0,1.72-1l8-13.86a2,2,0,0,0-.24-2.32ZM92,83.17l-2-.4L79.84,80.68,78,80.29,76.5,81.52a36.73,36.73,0,0,1-10.64,6.17l-1.79.67-.6,1.82-3.12,9.4h0L59.52,102H46.46l-.68-2-3.25-9.79-.6-1.82-1.79-.67a36.73,36.73,0,0,1-10.64-6.17L28,80.29l-1.87.38-9.71,2h0L14,83.17,7.43,71.83l1.38-1.57,6.88-7.78L16.94,61l-.32-1.89a36.82,36.82,0,0,1,0-12.33L16.94,45l-1.26-1.43L9.13,36.11h0L7.43,34.17,14,22.82l2,.4,10.2,2.09,1.87.38,1.47-1.22a36.72,36.72,0,0,1,10.64-6.17l1.79-.67.6-1.82,3.13-9.41h0L46.47,4H59.53l.69,2,3.25,9.79.6,1.82,1.79.67A36.72,36.72,0,0,1,76.5,24.48L78,25.71l1.87-.38,9.7-2h0L92,22.83l6.53,11.35-1.39,1.58-6.87,7.77L89,45l.32,1.89a36.82,36.82,0,0,1,0,12.33L89,61l1.26,1.43,6.55,7.4h0l1.71,1.94ZM53,31A22,22,0,1,0,75,53,22,22,0,0,0,53,31ZM33,53a20,20,0,0,1,8.73-16.52L51.83,53,41.73,69.52A20,20,0,0,1,33,53ZM53,73a19.91,19.91,0,0,1-9.56-2.43L53.56,54H72.95A20,20,0,0,1,53,73Zm.56-21L43.44,35.43A20,20,0,0,1,72.95,52Z"/></g></g></svg>